# xmcd
#
# Track frame offsets:
#	150
#	20732
#	36824
#	50476
#	64228
#	80312
#	96467
#	112029
#	128124
#	141519
#	157437
#
# Disc length: 2309 seconds
# Revision: 2
# Processed by: cddbd v1.5.2PL0 Copyright (c) Steve Scherf et al.
# Submitted via: dBpowerAMP V12.0
#
DISCID=a609030b
DTITLE=Crystal Shawanda - Dawn Of A New Day
DYEAR=2008
DGENRE=Country
TTITLE0=Evolution
TTITLE1=My Roots Are Showing
TTITLE2=Tender Side
TTITLE3=Baby You're Back
TTITLE4=Dawn Of A New Day
TTITLE5=You Can Let Go
TTITLE6=I Need A Man
TTITLE7=What Do I Have To Do
TTITLE8=Your Cheatin' Heart
TTITLE9=Try
TTITLE10=You Can't Take It Back
EXTD=
EXTT0=
EXTT1=
EXTT2=
EXTT3=
EXTT4=
EXTT5=
EXTT6=
EXTT7=
EXTT8=
EXTT9=
EXTT10=
PLAYORDER=
